<svg xmlns="http://www.w3.org/2000/svg" width="145" height="142" viewBox="0 0 145 142">
    <defs>
        <clipPath id="klaea">
            <path fill="#fff"
                  d="M84.643 67.047c0-3.616-2.877-6.547-6.427-6.547-2.318 0-4.342 1.254-5.473 3.128-1.13-1.874-3.155-3.128-5.473-3.128-3.55 0-6.427 2.93-6.427 6.547 0 1.968.857 3.729 2.207 4.928l9.107 9.277a.822.822 0 0 0 1.173 0l9.107-9.277a6.574 6.574 0 0 0 2.206-4.928z"/>
        </clipPath>
    </defs>
    <g>
        <g opacity=".7">
            <path fill="#ccc"
                  d="M84.643 67.047c0-3.616-2.877-6.547-6.427-6.547-2.318 0-4.342 1.254-5.473 3.128-1.13-1.874-3.155-3.128-5.473-3.128-3.55 0-6.427 2.93-6.427 6.547 0 1.968.857 3.729 2.207 4.928l9.107 9.277a.822.822 0 0 0 1.173 0l9.107-9.277a6.574 6.574 0 0 0 2.206-4.928z"/>
            <path fill="none" stroke="#fff" stroke-miterlimit="20" stroke-width="6"
                  d="M84.643 67.047c0-3.616-2.877-6.547-6.427-6.547-2.318 0-4.342 1.254-5.473 3.128-1.13-1.874-3.155-3.128-5.473-3.128-3.55 0-6.427 2.93-6.427 6.547 0 1.968.857 3.729 2.207 4.928l9.107 9.277a.822.822 0 0 0 1.173 0l9.107-9.277a6.574 6.574 0 0 0 2.206-4.928z"
                  clip-path="url(&quot;#klaea&quot;)"/>
        </g>
    </g>
</svg>